<svg width="244" height="48" viewBox="0 0 244 48" fill="none" xmlns="http://www.w3.org/2000/svg">
<path d="M10.9355 0.279297H232.936C238.821 0.279458 243.591 5.0505 243.591 10.9355V36.9355C243.591 42.8205 238.82 47.5907 232.936 47.5908H10.9355C5.0505 47.5908 0.279454 42.8206 0.279297 36.9355V10.9355C0.279297 5.05041 5.05041 0.279297 10.9355 0.279297Z" stroke="#E2E8F0" stroke-width="0.558521"/>
<path d="M23.9355 13.9355C23.9355 13.3833 23.4878 12.9355 22.9355 12.9355C22.3833 12.9355 21.9355 13.3833 21.9355 13.9355L21.9355 27.9355C21.9355 28.4878 22.3833 28.9355 22.9355 28.9355C23.4878 28.9355 23.9355 28.4878 23.9355 27.9355L23.9355 13.9355Z" fill="#D73A49"/>
<path d="M22.9355 32.6855C22.2452 32.6855 21.6855 33.2452 21.6855 33.9355C21.6855 34.6259 22.2452 35.1855 22.9355 35.1855C23.6259 35.1855 24.1856 34.6259 24.1856 33.9355C24.1856 33.2452 23.6259 32.6855 22.9355 32.6855Z" fill="#D73A49"/>
<rect width="46" height="8" rx="4" transform="matrix(1 0 0 -1 46.9355 18.9355)" fill="#E5E9F0"/>
<rect width="186" height="6" rx="3" transform="matrix(1 0 0 -1 46.9355 36.9355)" fill="#E5E9F0"/>
</svg>
