<svg width="268" height="97" viewBox="0 0 268 97" fill="none" xmlns="http://www.w3.org/2000/svg">
<rect y="0.747334" width="267.651" height="95.5587" rx="11.6696" transform="rotate(-0.159979 0 0.747334)" fill="#E8E8E8"/>
<path d="M59.1409 44.822L0.124432 44.9868L0.23514 84.6361C0.253135 91.0811 5.49236 96.2911 11.9373 96.2731L256.249 95.591C262.693 95.573 267.903 90.3337 267.886 83.8888L267.775 44.2394L232.994 44.3366C226.549 44.3546 221.309 39.1445 221.291 32.6996L221.259 21.2671C221.241 14.8221 216.002 9.61207 209.557 9.63006L82.383 9.98516C75.938 10.0032 70.728 15.2424 70.746 21.6873L70.7779 33.1198C70.7959 39.5648 65.5858 44.804 59.1409 44.822Z" fill="white"/>
<path d="M93.3089 31.1785L93.6851 31.1786C93.8799 31.1786 94.004 31.3881 93.9107 31.5575C92.5686 33.9605 89.9748 35.5695 87.0126 35.5038C82.8095 35.41 79.4895 31.8925 79.4891 27.6894L79.4886 22.1614C79.4885 21.0085 79.9568 19.9625 80.7119 19.2073C81.4671 18.4522 82.5132 17.9839 83.666 17.984L83.6663 20.9622C84.7203 20.4192 85.9172 20.1125 87.1848 20.1126C90.2457 20.1128 92.8904 21.901 94.1302 24.4897C94.2116 24.6592 94.0862 24.8553 93.8981 24.8553L93.307 24.8552C92.94 24.8552 92.6439 25.1527 92.6439 25.5183L92.644 27.353L90.6733 27.3528C90.4356 25.5128 88.7769 24.1183 86.8329 24.3076C85.197 24.4662 83.8708 25.7737 83.6908 27.4069C83.4562 29.5298 85.1122 31.3273 87.1871 31.3274C88.6361 31.3276 89.8823 30.451 90.4199 29.1982C90.5467 29.2742 90.6948 29.3169 90.8536 29.317L92.6455 29.3171L92.6456 30.514C92.6457 30.8809 92.9433 31.1785 93.3102 31.1785L93.3089 31.1785Z" fill="url(#paint0_linear_156_15200)"/>
<path d="M96.8972 25.1899L95.6549 25.1898C95.3277 25.1897 95.0625 25.455 95.0626 25.7822L95.0627 27.0244C95.0627 27.3516 95.3279 27.6168 95.6551 27.6169L96.8974 27.617C97.2246 27.617 97.4898 27.3518 97.4898 27.0246L97.4897 25.7824C97.4896 25.4552 97.2244 25.1899 96.8972 25.1899Z" fill="#0084BA"/>
<path d="M96.4172 29.3549L95.3671 29.3548C95.1902 29.3548 95.0469 29.4981 95.0469 29.675L95.047 30.7251C95.047 30.902 95.1904 31.0453 95.3673 31.0454L96.4174 31.0454C96.5942 31.0455 96.7376 30.9021 96.7376 30.7252L96.7375 29.6751C96.7375 29.4983 96.5941 29.3549 96.4172 29.3549Z" fill="#00313F"/>
<path d="M94.5618 27.3549L93.2382 27.3548C93.0613 27.3548 92.918 27.4981 92.918 27.675L92.9181 28.9986C92.9181 29.1755 93.0615 29.3189 93.2384 29.3189L94.562 29.319C94.7389 29.319 94.8822 29.1757 94.8822 28.9988L94.8821 27.6752C94.8821 27.4983 94.7387 27.3549 94.5618 27.3549Z" fill="#3ABCA2"/>
<path d="M91.5048 27.6283L90.7321 27.6282C90.5371 27.6282 90.3789 27.7863 90.3789 27.9814L90.379 28.7541C90.379 28.9492 90.5372 29.1073 90.7323 29.1074L91.5049 29.1074C91.7 29.1074 91.8582 28.9493 91.8581 28.7542L91.8581 27.9816C91.8581 27.7865 91.6999 27.6283 91.5048 27.6283Z" fill="url(#paint1_linear_156_15200)"/>
<path d="M83.668 20.9624L83.6873 27.3831C83.6873 27.3831 83.9299 24.8986 86.421 24.3744L86.4206 20.146C86.4206 20.146 84.9543 20.2713 83.668 20.9624Z" fill="url(#paint2_linear_156_15200)"/>
<ellipse cx="23.5537" cy="27.5439" rx="3.41501" ry="3.5229" transform="rotate(-0.159979 23.5537 27.5439)" fill="#FB6C66"/>
<ellipse cx="35.292" cy="27.5117" rx="3.41501" ry="3.5229" transform="rotate(-0.159979 35.292 27.5117)" fill="#F9BF3C"/>
<ellipse cx="47.0303" cy="27.4785" rx="3.41501" ry="3.5229" transform="rotate(-0.159979 47.0303 27.4785)" fill="#3ACA52"/>
<line x1="31.1458" y1="70.0168" x2="20.9008" y2="70.0454" stroke="#BCBCBC" stroke-width="0.880726"/>
<line x1="43.0964" y1="69.7054" x2="53.3414" y2="69.6768" stroke="#BCBCBC" stroke-width="0.880726"/>
<path d="M25.8711 64.7483L20.8978 69.9075L25.8998 75.0388" stroke="#BCBCBC" stroke-width="0.880726"/>
<path d="M48.3633 74.9758L53.3366 69.8167L48.3345 64.6854" stroke="#BCBCBC" stroke-width="0.880726"/>
<path d="M106.004 69.6692L101.002 64.5379L96.0286 69.6971" stroke="#BCBCBC" stroke-width="0.880726"/>
<path d="M75.7461 68.1311L79.1611 68.1216L79.1513 64.5987" stroke="#BCBCBC" stroke-width="0.880726"/>
<path d="M79.0937 68.0586C78.6967 66.9032 77.915 65.9306 76.8879 65.3142C75.8607 64.6977 74.6548 64.4774 73.4851 64.6925C72.3153 64.9076 71.2576 65.5442 70.5005 66.4888C69.7433 67.4334 69.3359 68.6246 69.3508 69.8503C69.3656 71.076 69.8018 72.2565 70.5816 73.1816C71.3615 74.1066 72.4342 74.716 73.6089 74.9013C74.7835 75.0866 75.9837 74.8357 76.9956 74.1933C78.0074 73.5509 78.7653 72.5587 79.1342 71.3935" stroke="#BCBCBC" stroke-width="0.880726"/>
<path d="M97.0898 68.6223L97.1074 74.8975L105.005 74.8754L104.987 68.6003" stroke="#BCBCBC" stroke-width="0.880726"/>
<path d="M107.869 30.9236L107.85 23.8778L110.313 23.871C110.804 23.8696 111.209 23.9533 111.528 24.1222C111.847 24.2887 112.085 24.514 112.242 24.7979C112.399 25.0796 112.478 25.3924 112.479 25.7365C112.48 26.0392 112.426 26.2894 112.319 26.4869C112.214 26.6845 112.075 26.8408 111.901 26.956C111.729 27.0711 111.542 27.1565 111.341 27.2121L111.341 27.2809C111.556 27.2941 111.773 27.3692 111.992 27.5062C112.21 27.6432 112.393 27.8399 112.54 28.0964C112.688 28.3528 112.762 28.6669 112.763 29.0384C112.764 29.3916 112.685 29.7095 112.525 29.9921C112.365 30.2746 112.112 30.4989 111.767 30.665C111.421 30.8311 110.97 30.915 110.415 30.9165L107.869 30.9236ZM108.72 30.1644L110.413 30.1596C110.97 30.1581 111.366 30.0492 111.599 29.8329C111.835 29.6144 111.952 29.3503 111.951 29.0407C111.951 28.8021 111.889 28.5821 111.767 28.3806C111.645 28.1769 111.471 28.0145 111.246 27.8936C111.021 27.7703 110.755 27.7092 110.448 27.71L108.714 27.7149L108.72 30.1644ZM108.712 26.9718L110.294 26.9673C110.551 26.9666 110.783 26.9155 110.989 26.814C111.197 26.7125 111.362 26.5699 111.483 26.386C111.606 26.2022 111.668 25.9864 111.667 25.7387C111.666 25.4291 111.557 25.1668 111.341 24.9518C111.125 24.7345 110.783 24.6265 110.315 24.6278L108.705 24.6323L108.712 26.9718ZM115.616 31.0258C115.281 31.0268 114.977 30.9646 114.703 30.8392C114.43 30.7115 114.213 30.5275 114.052 30.2871C113.89 30.0444 113.809 29.7511 113.808 29.407C113.808 29.1043 113.866 28.8587 113.985 28.6703C114.104 28.4796 114.263 28.3301 114.462 28.2217C114.661 28.1134 114.881 28.0325 115.122 27.9791C115.365 27.9234 115.609 27.8791 115.854 27.8463C116.175 27.8041 116.436 27.7724 116.635 27.7512C116.837 27.7277 116.984 27.6895 117.075 27.6365C117.169 27.5835 117.216 27.4916 117.215 27.3608L117.215 27.3333C117.214 26.9939 117.121 26.7304 116.935 26.5428C116.751 26.3553 116.472 26.262 116.098 26.2631C115.71 26.2641 115.406 26.3499 115.187 26.5202C114.967 26.6905 114.813 26.8721 114.724 27.0651L113.952 26.792C114.089 26.4705 114.272 26.22 114.501 26.0405C114.732 25.8586 114.984 25.7318 115.257 25.6599C115.532 25.5857 115.802 25.5483 116.068 25.5475C116.238 25.5471 116.433 25.5672 116.653 25.6078C116.876 25.6462 117.091 25.727 117.297 25.8503C117.506 25.9736 117.68 26.16 117.818 26.4096C117.957 26.6592 118.026 26.9939 118.028 27.4136L118.037 30.8952L117.225 30.8975L117.223 30.1819L117.182 30.182C117.127 30.2969 117.036 30.4198 116.908 30.5509C116.78 30.682 116.609 30.7937 116.396 30.8861C116.183 30.9784 115.923 31.025 115.616 31.0258ZM115.737 30.2962C116.059 30.2953 116.329 30.2314 116.549 30.1047C116.771 29.9779 116.938 29.8146 117.05 29.6147C117.164 29.4149 117.221 29.2049 117.22 28.9847L117.218 28.2416C117.184 28.283 117.108 28.321 116.991 28.3557C116.877 28.3882 116.744 28.4172 116.592 28.4429C116.443 28.4662 116.298 28.4873 116.156 28.506C116.016 28.5225 115.902 28.5365 115.815 28.5482C115.604 28.5764 115.407 28.6216 115.224 28.6841C115.043 28.7442 114.896 28.8352 114.784 28.9571C114.674 29.0767 114.62 29.2396 114.62 29.4461C114.621 29.7282 114.726 29.9412 114.935 30.0851C115.147 30.2267 115.414 30.2971 115.737 30.2962ZM119.858 32.8718C119.721 32.8722 119.598 32.861 119.49 32.8384C119.382 32.8181 119.308 32.7976 119.266 32.7771L119.471 32.0609C119.668 32.1109 119.843 32.1287 119.994 32.1145C120.145 32.1004 120.279 32.0323 120.396 31.9104C120.515 31.7908 120.623 31.5967 120.721 31.3281L120.871 30.9148L118.902 25.6084L119.783 25.606L121.254 29.8129L121.309 29.8127L122.756 25.5977L123.636 25.5952L121.41 31.6565C121.31 31.9297 121.186 32.1559 121.037 32.3352C120.888 32.5169 120.716 32.6515 120.519 32.7392C120.324 32.8269 120.104 32.8711 119.858 32.8718ZM126.117 30.9965C125.782 30.9975 125.478 30.9352 125.205 30.8099C124.932 30.6822 124.714 30.4982 124.553 30.2578C124.392 30.0151 124.311 29.7218 124.31 29.3777C124.309 29.075 124.368 28.8294 124.487 28.641C124.606 28.4503 124.765 28.3008 124.964 28.1924C125.163 28.0841 125.383 28.0032 125.624 27.9498C125.867 27.894 126.111 27.8498 126.356 27.817C126.677 27.7748 126.937 27.7431 127.137 27.7219C127.339 27.6984 127.485 27.6602 127.577 27.6071C127.671 27.5541 127.717 27.4623 127.717 27.3315L127.717 27.304C127.716 26.9646 127.622 26.7011 127.436 26.5135C127.252 26.326 126.973 26.2327 126.599 26.2337C126.212 26.2348 125.908 26.3205 125.688 26.4909C125.469 26.6612 125.314 26.8428 125.225 27.0357L124.454 26.7627C124.591 26.4412 124.774 26.1907 125.002 26.0111C125.234 25.8293 125.485 25.7024 125.758 25.6306C126.033 25.5564 126.304 25.519 126.57 25.5182C126.74 25.5178 126.935 25.5379 127.155 25.5785C127.377 25.6169 127.592 25.6977 127.799 25.821C128.008 25.9443 128.182 26.1307 128.32 26.3803C128.458 26.6299 128.528 26.9646 128.529 27.3843L128.539 30.8659L127.727 30.8682L127.725 30.1526L127.684 30.1527C127.629 30.2675 127.538 30.3905 127.409 30.5216C127.281 30.6527 127.111 30.7644 126.898 30.8567C126.685 30.9491 126.425 30.9957 126.117 30.9965ZM126.239 30.2668C126.56 30.2659 126.831 30.2021 127.05 30.0753C127.273 29.9486 127.44 29.7853 127.551 29.5854C127.665 29.3856 127.722 29.1755 127.722 28.9554L127.72 28.2123C127.685 28.2536 127.61 28.2917 127.493 28.3264C127.378 28.3588 127.245 28.3879 127.094 28.4135C126.945 28.4369 126.799 28.4579 126.657 28.4767C126.517 28.4931 126.404 28.5072 126.317 28.5189C126.106 28.547 125.909 28.5923 125.725 28.6547C125.544 28.7149 125.398 28.8059 125.286 28.9278C125.176 29.0473 125.121 29.2103 125.122 29.4167C125.123 29.6989 125.228 29.9119 125.437 30.0558C125.648 30.1974 125.916 30.2677 126.239 30.2668ZM130.824 27.6806L130.833 30.8595L130.021 30.8618L130.006 25.5774L130.79 25.5752L130.793 26.4009L130.862 26.4007C130.985 26.132 131.172 25.9159 131.424 25.7524C131.676 25.5865 132.001 25.5031 132.4 25.5019C132.758 25.5009 133.071 25.5735 133.34 25.7195C133.609 25.8632 133.818 26.0828 133.968 26.3783C134.118 26.6715 134.194 27.0428 134.195 27.4923L134.204 30.8501L133.392 30.8524L133.383 27.5497C133.382 27.1345 133.273 26.8114 133.057 26.5804C132.841 26.347 132.545 26.2309 132.168 26.2319C131.909 26.2327 131.678 26.2895 131.474 26.4025C131.272 26.5154 131.113 26.6798 130.997 26.8958C130.881 27.1117 130.823 27.3733 130.824 27.6806ZM137.243 30.9655C136.908 30.9664 136.604 30.9042 136.331 30.7788C136.058 30.6511 135.84 30.4671 135.679 30.2267C135.518 29.984 135.437 29.6907 135.436 29.3467C135.435 29.0439 135.494 28.7983 135.613 28.6099C135.732 28.4192 135.891 28.2697 136.09 28.1614C136.289 28.053 136.509 27.9721 136.75 27.9187C136.993 27.863 137.237 27.8187 137.482 27.7859C137.803 27.7437 138.063 27.712 138.263 27.6908C138.465 27.6673 138.611 27.6291 138.703 27.5761C138.797 27.5231 138.843 27.4312 138.843 27.3005L138.843 27.2729C138.842 26.9335 138.748 26.67 138.562 26.4824C138.378 26.2949 138.099 26.2016 137.725 26.2027C137.338 26.2038 137.034 26.2895 136.814 26.4598C136.595 26.6301 136.44 26.8118 136.351 27.0047L135.58 26.7316C135.717 26.4101 135.9 26.1596 136.128 25.9801C136.36 25.7982 136.611 25.6714 136.884 25.5995C137.159 25.5254 137.43 25.4879 137.696 25.4872C137.866 25.4867 138.061 25.5068 138.281 25.5475C138.503 25.5858 138.718 25.6666 138.925 25.7899C139.134 25.9132 139.308 26.0996 139.446 26.3492C139.584 26.5989 139.654 26.9335 139.655 27.3532L139.665 30.8348L138.853 30.8371L138.851 30.1215L138.81 30.1216C138.755 30.2365 138.664 30.3594 138.535 30.4905C138.407 30.6216 138.237 30.7333 138.024 30.8257C137.811 30.918 137.551 30.9646 137.243 30.9655ZM137.365 30.2358C137.686 30.2349 137.957 30.171 138.176 30.0443C138.399 29.9175 138.566 29.7542 138.677 29.5544C138.791 29.3545 138.848 29.1445 138.848 28.9243L138.846 28.1812C138.811 28.2226 138.736 28.2606 138.619 28.2953C138.504 28.3278 138.371 28.3568 138.22 28.3825C138.071 28.4058 137.925 28.4269 137.783 28.4456C137.643 28.4621 137.53 28.4761 137.443 28.4879C137.232 28.516 137.035 28.5612 136.851 28.6237C136.67 28.6838 136.524 28.7748 136.412 28.8967C136.302 29.0163 136.247 29.1793 136.248 29.3857C136.249 29.6678 136.354 29.8808 136.563 30.0247C136.774 30.1663 137.042 30.2367 137.365 30.2358ZM143.43 25.54L143.432 26.228L140.694 26.2357L140.692 25.5476L143.43 25.54ZM141.486 24.2793L142.298 24.2771L142.312 29.3137C142.313 29.5431 142.347 29.715 142.413 29.8295C142.483 29.9417 142.57 30.0171 142.676 30.0558C142.783 30.0922 142.897 30.1102 143.016 30.1099C143.106 30.1096 143.179 30.1049 143.236 30.0955C143.294 30.0839 143.34 30.0746 143.374 30.0676L143.541 30.7965C143.486 30.8173 143.409 30.8382 143.311 30.8591C143.212 30.8823 143.087 30.8941 142.936 30.8945C142.707 30.8952 142.482 30.8465 142.261 30.7485C142.043 30.6505 141.861 30.5007 141.716 30.2993C141.574 30.0979 141.502 29.8435 141.501 29.5361L141.486 24.2793ZM144.666 30.8209L144.651 25.5365L145.463 25.5343L145.478 30.8186L144.666 30.8209ZM145.062 24.6547C144.904 24.6551 144.767 24.6016 144.652 24.4941C144.539 24.3866 144.483 24.2572 144.482 24.1058C144.482 23.9545 144.538 23.8247 144.65 23.7166C144.764 23.6085 144.901 23.5542 145.059 23.5538C145.217 23.5533 145.352 23.6068 145.465 23.7143C145.58 23.8218 145.638 23.9512 145.638 24.1026C145.639 24.254 145.582 24.3837 145.467 24.4918C145.355 24.6 145.22 24.6542 145.062 24.6547ZM147.075 30.8142L147.056 23.7684L147.909 23.766L147.918 26.9036L151.674 26.8931L151.666 23.7555L152.519 23.7531L152.539 30.7989L151.685 30.8013L151.677 27.6499L147.92 27.6604L147.929 30.8118L147.075 30.8142ZM157.461 28.6246L157.452 25.5008L158.264 25.4985L158.279 30.7829L157.467 30.7851L157.464 29.8907L157.409 29.8908C157.286 30.1595 157.094 30.3882 156.833 30.577C156.572 30.7636 156.242 30.8574 155.843 30.8585C155.513 30.8594 155.219 30.788 154.962 30.6442C154.705 30.4981 154.502 30.2785 154.354 29.9853C154.207 29.6899 154.132 29.3174 154.131 28.8679L154.122 25.5101L154.934 25.5078L154.943 28.8105C154.944 29.1959 155.053 29.5029 155.269 29.7316C155.487 29.9604 155.765 30.0743 156.102 30.0734C156.304 30.0728 156.509 30.0206 156.718 29.9168C156.929 29.813 157.105 29.6543 157.246 29.4406C157.39 29.2269 157.462 28.9549 157.461 28.6246ZM159.876 30.7784L159.856 23.7326L160.668 23.7304L160.675 26.3313L160.744 26.3311C160.804 26.2391 160.886 26.1219 160.991 25.9795C161.098 25.8347 161.252 25.7058 161.451 25.5929C161.652 25.4776 161.925 25.4195 162.269 25.4185C162.714 25.4173 163.107 25.5274 163.447 25.749C163.787 25.9705 164.053 26.2851 164.244 26.6928C164.436 27.1006 164.532 27.5819 164.534 28.137C164.535 28.6966 164.441 29.182 164.252 29.593C164.063 30.0018 163.8 30.3191 163.464 30.5448C163.127 30.7682 162.739 30.8805 162.298 30.8817C161.959 30.8827 161.687 30.8273 161.482 30.7154C161.278 30.6013 161.12 30.4722 161.01 30.328C160.899 30.1815 160.814 30.0602 160.754 29.964L160.658 29.9643L160.66 30.7762L159.876 30.7784ZM160.667 28.134C160.668 28.5331 160.727 28.885 160.845 29.1897C160.963 29.4921 161.134 29.729 161.36 29.9004C161.585 30.0695 161.86 30.1536 162.186 30.1527C162.525 30.1518 162.809 30.0615 163.035 29.882C163.264 29.7002 163.435 29.4566 163.549 29.1512C163.665 28.8435 163.723 28.5016 163.722 28.1255C163.721 27.7539 163.662 27.4192 163.547 27.1214C163.434 26.8213 163.262 26.5843 163.032 26.4107C162.805 26.2347 162.519 26.1472 162.175 26.1482C161.845 26.1491 161.567 26.2336 161.343 26.4016C161.119 26.5674 160.95 26.7995 160.836 27.098C160.722 27.3942 160.666 27.7395 160.667 28.134Z" fill="#838383"/>
<line y1="-0.220181" x2="7.97296" y2="-0.220181" transform="matrix(0.698028 0.71607 -0.694019 0.719957 200.695 24.1858)" stroke="#BCBCBC" stroke-width="0.440363"/>
<line y1="-0.220181" x2="7.97296" y2="-0.220181" transform="matrix(-0.694019 0.719957 -0.698028 -0.71607 206.246 24.1712)" stroke="#BCBCBC" stroke-width="0.440363"/>
<line x1="235.066" y1="26.7288" x2="242.75" y2="26.7074" stroke="#BCBCBC" stroke-width="0.440363"/>
<line x1="239.115" y1="22.9782" x2="239.137" y2="30.9047" stroke="#BCBCBC" stroke-width="0.440363"/>
<path d="M128.684 69.0848C128.66 60.5726 135.541 53.6529 144.053 53.6291L267.802 53.2836L267.891 85.4299L144.143 85.7755C135.631 85.7992 128.711 78.918 128.687 70.4059L128.684 69.0848Z" fill="#E4E4E4"/>
<path d="M154.718 73.2878L153.093 68.0079L153.947 68.0056L155.1 72.0482L155.155 72.048L156.272 67.9991L157.139 67.9966L158.265 72.0256L158.32 72.0254L159.451 67.9902L160.304 67.9878L158.709 73.2766L157.911 73.2789L156.744 69.2225L156.661 69.2227L155.516 73.2855L154.718 73.2878ZM162.59 73.2658L160.965 67.986L161.818 67.9836L162.972 72.0262L163.027 72.0261L164.144 67.9771L165.011 67.9747L166.137 72.0036L166.192 72.0035L167.323 67.9682L168.176 67.9658L166.58 73.2547L165.782 73.2569L164.615 69.2005L164.532 69.2008L163.388 73.2636L162.59 73.2658ZM170.461 73.2438L168.836 67.964L169.69 67.9616L170.843 72.0042L170.898 72.0041L172.015 67.9551L172.882 67.9527L174.008 71.9816L174.063 71.9815L175.194 67.9462L176.047 67.9438L174.452 73.2327L173.654 73.2349L172.487 69.1786L172.404 69.1788L171.259 73.2416L170.461 73.2438ZM177.008 73.2806C176.839 73.2811 176.693 73.2207 176.571 73.0995C176.449 72.9782 176.388 72.8328 176.387 72.6631C176.387 72.4933 176.447 72.3475 176.568 72.2256C176.69 72.1037 176.835 72.0425 177.005 72.0421C177.175 72.0416 177.32 72.102 177.442 72.2232C177.564 72.3444 177.625 72.4899 177.626 72.6596C177.626 72.772 177.598 72.8753 177.541 72.9695C177.486 73.0637 177.412 73.1396 177.318 73.1972C177.226 73.2525 177.123 73.2803 177.008 73.2806ZM179.836 71.291L179.819 70.2865L179.984 70.2861L182.29 67.9264L183.294 67.9236L180.838 70.4213L180.769 70.4215L179.836 71.291ZM179.084 73.2197L179.065 66.174L179.877 66.1717L179.896 73.2175L179.084 73.2197ZM182.442 73.2104L180.371 70.6015L180.947 70.0357L183.474 73.2075L182.442 73.2104ZM184.354 73.205L184.339 67.9207L185.124 67.9185L185.126 68.7167L185.181 68.7165C185.277 68.4548 185.45 68.2421 185.702 68.0786C185.954 67.915 186.238 67.8328 186.555 67.8319C186.614 67.8318 186.689 67.8327 186.778 67.8348C186.868 67.8368 186.935 67.8401 186.981 67.8445L186.984 68.6702C186.956 68.6634 186.893 68.6532 186.794 68.6398C186.698 68.624 186.596 68.6162 186.488 68.6165C186.231 68.6172 186.002 68.6718 185.8 68.7801C185.601 68.8862 185.443 69.0334 185.327 69.2218C185.213 69.4079 185.156 69.6202 185.157 69.8588L185.166 73.2028L184.354 73.205ZM187.959 73.195L187.944 67.9106L188.756 67.9084L188.771 73.1927L187.959 73.195ZM188.354 67.0288C188.196 67.0292 188.059 66.9757 187.944 66.8682C187.832 66.7607 187.775 66.6313 187.775 66.4799C187.774 66.3285 187.83 66.1988 187.942 66.0907C188.057 65.9826 188.193 65.9283 188.351 65.9279C188.509 65.9274 188.645 65.9809 188.758 66.0884C188.873 66.1959 188.93 66.3253 188.931 66.4767C188.931 66.6281 188.874 66.7578 188.76 66.8659C188.648 66.974 188.513 67.0283 188.354 67.0288ZM193.989 69.0772L193.26 69.2857C193.214 69.1643 193.146 69.0463 193.057 68.9319C192.969 68.8152 192.85 68.7192 192.698 68.6439C192.546 68.5686 192.352 68.5313 192.116 68.532C191.793 68.5329 191.524 68.6082 191.308 68.7579C191.095 68.9053 190.989 69.0925 190.99 69.3195C190.991 69.5214 191.064 69.6806 191.211 69.7971C191.359 69.9137 191.588 70.0105 191.9 70.0876L192.685 70.2781C193.158 70.3915 193.511 70.5659 193.743 70.8015C193.975 71.0348 194.092 71.3361 194.093 71.7054C194.094 72.0081 194.007 72.279 193.834 72.518C193.662 72.757 193.422 72.9458 193.113 73.0842C192.804 73.2227 192.444 73.2925 192.033 73.2937C191.494 73.2952 191.048 73.1795 190.694 72.9465C190.34 72.7135 190.115 72.3724 190.02 71.9232L190.79 71.7283C190.864 72.0125 191.004 72.2255 191.208 72.3671C191.415 72.5087 191.685 72.5791 192.017 72.5781C192.396 72.5771 192.696 72.496 192.918 72.3348C193.142 72.1713 193.254 71.9761 193.254 71.749C193.253 71.5655 193.188 71.412 193.06 71.2885C192.931 71.1627 192.733 71.0693 192.467 71.0081L191.586 70.8041C191.102 70.6908 190.746 70.514 190.518 70.2738C190.292 70.0314 190.179 69.7278 190.178 69.3631C190.177 69.0649 190.26 68.8009 190.427 68.5711C190.596 68.3413 190.826 68.1606 191.117 68.0291C191.41 67.8975 191.743 67.8312 192.114 67.8302C192.637 67.8287 193.048 67.9422 193.347 68.1708C193.648 68.3993 193.862 68.7014 193.989 69.0772ZM197.603 67.8837L197.605 68.5717L194.866 68.5794L194.864 67.8913L197.603 67.8837ZM195.659 66.623L196.471 66.6208L196.485 71.6574C196.485 71.8868 196.519 72.0587 196.586 72.1732C196.655 72.2854 196.742 72.3608 196.848 72.3995C196.956 72.4359 197.069 72.4539 197.189 72.4536C197.278 72.4533 197.352 72.4486 197.409 72.4392C197.466 72.4276 197.512 72.4183 197.546 72.4113L197.714 73.1402C197.659 73.161 197.582 73.1819 197.483 73.2028C197.385 73.226 197.26 73.2378 197.108 73.2382C196.879 73.2389 196.654 73.1902 196.434 73.0922C196.216 72.9942 196.034 72.8444 195.889 72.643C195.746 72.4416 195.674 72.1872 195.673 71.8799L195.659 66.623ZM198.839 73.1646L198.824 67.8803L199.636 67.878L199.651 73.1623L198.839 73.1646ZM199.234 66.9984C199.076 66.9988 198.939 66.9453 198.824 66.8378C198.712 66.7303 198.655 66.6009 198.655 66.4495C198.654 66.2982 198.71 66.1684 198.822 66.0603C198.937 65.9522 199.073 65.8979 199.231 65.8975C199.389 65.897 199.525 65.9506 199.638 66.058C199.753 66.1655 199.81 66.2949 199.811 66.4463C199.811 66.5977 199.754 66.7274 199.64 66.8355C199.528 66.9437 199.393 66.9979 199.234 66.9984ZM203.285 73.2623C202.789 73.2636 202.362 73.1479 202.004 72.9149C201.646 72.682 201.369 72.3605 201.176 71.9505C200.982 71.5405 200.884 71.0717 200.883 70.5442C200.881 70.0075 200.978 69.5336 201.175 69.1225C201.373 68.7091 201.65 68.3861 202.004 68.1535C202.362 67.9185 202.779 67.8004 203.256 67.7991C203.627 67.798 203.962 67.8659 204.261 68.0027C204.559 68.1395 204.804 68.3314 204.995 68.5786C205.186 68.8258 205.305 69.1144 205.352 69.4446L204.54 69.4469C204.478 69.2062 204.339 68.9933 204.126 68.8081C203.914 68.6206 203.629 68.5274 203.272 68.5284C202.955 68.5293 202.678 68.6126 202.44 68.7784C202.204 68.9419 202.02 69.1729 201.888 69.4715C201.758 69.7677 201.693 70.1153 201.694 70.5144C201.696 70.9227 201.761 71.278 201.89 71.5804C202.022 71.8828 202.206 72.1173 202.443 72.2841C202.682 72.4509 202.962 72.5338 203.283 72.5329C203.494 72.5323 203.685 72.4951 203.857 72.4212C204.029 72.3473 204.174 72.2414 204.293 72.1035C204.412 71.9655 204.496 71.8002 204.546 71.6074L205.358 71.6051C205.313 71.9172 205.2 72.1984 205.02 72.4489C204.842 72.6971 204.605 72.895 204.309 73.0427C204.016 73.188 203.675 73.2612 203.285 73.2623ZM209.873 70.9732L209.865 67.8494L210.677 67.8472L210.691 73.1315L209.88 73.1338L209.877 72.2393L209.822 72.2394C209.699 72.5081 209.507 72.7369 209.246 72.9257C208.985 73.1122 208.655 73.206 208.256 73.2071C207.926 73.208 207.632 73.1366 207.375 72.9928C207.117 72.8467 206.915 72.6271 206.767 72.334C206.62 72.0385 206.545 71.666 206.544 71.2165L206.535 67.8587L207.346 67.8565L207.356 71.1592C207.357 71.5445 207.465 71.8515 207.682 72.0803C207.9 72.309 208.178 72.4229 208.515 72.422C208.717 72.4214 208.922 72.3692 209.131 72.2654C209.341 72.1616 209.517 72.0029 209.659 71.7892C209.803 71.5755 209.874 71.3035 209.873 70.9732ZM212.982 69.9462L212.99 73.1251L212.179 73.1273L212.164 67.843L212.948 67.8408L212.95 68.6665L213.019 68.6663C213.142 68.3976 213.33 68.1815 213.582 68.0179C213.834 67.8521 214.159 67.7686 214.558 67.7675C214.916 67.7665 215.229 67.839 215.498 67.9851C215.767 68.1288 215.976 68.3484 216.126 68.6439C216.276 68.937 216.351 69.3084 216.353 69.7579L216.362 73.1157L215.55 73.1179L215.541 69.8152C215.54 69.4001 215.431 69.077 215.215 68.8459C214.998 68.6126 214.702 68.4965 214.326 68.4975C214.067 68.4982 213.835 68.5551 213.632 68.668C213.43 68.781 213.271 68.9454 213.155 69.1613C213.038 69.3772 212.981 69.6389 212.982 69.9462ZM219.984 75.1973C219.592 75.1984 219.255 75.1489 218.973 75.0487C218.69 74.9509 218.455 74.8208 218.266 74.6585C218.08 74.4985 217.932 74.3269 217.821 74.1437L218.466 73.6878C218.54 73.7839 218.633 73.8937 218.746 74.0173C218.859 74.1431 219.013 74.2516 219.208 74.3428C219.405 74.4363 219.664 74.4826 219.982 74.4817C220.409 74.4805 220.761 74.3763 221.038 74.1691C221.315 73.9619 221.453 73.6381 221.451 73.1978L221.448 72.1244L221.38 72.1246C221.32 72.2211 221.236 72.3406 221.126 72.4831C221.019 72.6233 220.863 72.7487 220.659 72.8594C220.458 72.9678 220.185 73.0224 219.841 73.0234C219.414 73.0246 219.031 72.9247 218.691 72.7238C218.353 72.5229 218.085 72.2301 217.887 71.8454C217.691 71.4606 217.592 70.993 217.59 70.4425C217.589 69.9012 217.683 69.4296 217.872 69.0277C218.061 68.6236 218.325 68.3109 218.664 68.0898C219.003 67.8663 219.395 67.754 219.84 67.7528C220.184 67.7518 220.457 67.8084 220.659 67.9225C220.864 68.0343 221.02 68.1623 221.128 68.3065C221.239 68.4484 221.324 68.5651 221.384 68.6567L221.466 68.6565L221.464 67.817L222.248 67.8148L222.263 73.2506C222.265 73.7047 222.162 74.0742 221.957 74.3592C221.754 74.6465 221.479 74.8571 221.133 74.9911C220.789 75.1274 220.406 75.1961 219.984 75.1973ZM219.949 72.2937C220.274 72.2928 220.549 72.2175 220.774 72.0678C220.998 71.9181 221.168 71.7032 221.285 71.423C221.401 71.1429 221.458 70.8079 221.457 70.418C221.456 70.0372 221.398 69.7014 221.282 69.4104C221.167 69.1195 220.997 68.8917 220.771 68.7272C220.546 68.5627 220.268 68.4809 219.938 68.4818C219.594 68.4828 219.308 68.5708 219.079 68.7457C218.852 68.9207 218.682 69.1551 218.568 69.449C218.457 69.7429 218.401 70.0687 218.402 70.4265C218.403 70.7935 218.462 71.1178 218.577 71.3996C218.695 71.6791 218.867 71.8988 219.095 72.0587C219.325 72.2163 219.609 72.2947 219.949 72.2937ZM225.305 73.2145C224.97 73.2155 224.666 73.1533 224.392 73.0279C224.119 72.9002 223.902 72.7162 223.741 72.4758C223.579 72.2331 223.498 71.9398 223.497 71.5957C223.496 71.293 223.555 71.0474 223.674 70.859C223.793 70.6683 223.952 70.5188 224.151 70.4104C224.35 70.3021 224.57 70.2212 224.811 70.1678C225.054 70.112 225.298 70.0678 225.543 70.035C225.864 69.9928 226.125 69.9611 226.324 69.9399C226.526 69.9164 226.673 69.8782 226.764 69.8252C226.858 69.7721 226.905 69.6803 226.904 69.5495L226.904 69.522C226.903 69.1826 226.81 68.9191 226.623 68.7315C226.439 68.544 226.161 68.4507 225.787 68.4518C225.399 68.4528 225.095 68.5385 224.876 68.7089C224.656 68.8792 224.502 69.0608 224.413 69.2537L223.641 68.9807C223.778 68.6592 223.961 68.4087 224.19 68.2291C224.421 68.0473 224.673 67.9205 224.946 67.8486C225.221 67.7744 225.491 67.737 225.757 67.7362C225.927 67.7358 226.122 67.7559 226.342 67.7965C226.565 67.8349 226.779 67.9157 226.986 68.039C227.195 68.1623 227.369 68.3487 227.507 68.5983C227.646 68.8479 227.715 69.1826 227.716 69.6023L227.726 73.0839L226.914 73.0862L226.912 72.3706L226.871 72.3707C226.816 72.4856 226.725 72.6085 226.597 72.7396C226.469 72.8707 226.298 72.9824 226.085 73.0747C225.872 73.1671 225.612 73.2137 225.305 73.2145ZM225.426 72.4848C225.747 72.4839 226.018 72.4201 226.238 72.2934C226.46 72.1666 226.627 72.0033 226.739 71.8034C226.853 71.6036 226.91 71.3936 226.909 71.1734L226.907 70.4303C226.873 70.4716 226.797 70.5097 226.68 70.5444C226.566 70.5769 226.433 70.6059 226.281 70.6316C226.132 70.6549 225.987 70.676 225.845 70.6947C225.705 70.7111 225.591 70.7252 225.504 70.7369C225.293 70.765 225.096 70.8103 224.913 70.8728C224.732 70.9329 224.585 71.0239 224.473 71.1458C224.363 71.2653 224.309 71.4283 224.309 71.6348C224.31 71.9169 224.415 72.1299 224.624 72.2738C224.836 72.4154 225.103 72.4857 225.426 72.4848ZM229.8 73.1332C229.63 73.1337 229.484 73.0733 229.363 72.9521C229.241 72.8308 229.179 72.6854 229.179 72.5157C229.179 72.3459 229.239 72.2001 229.36 72.0782C229.481 71.9563 229.627 71.8951 229.797 71.8947C229.966 71.8942 230.112 71.9546 230.234 72.0758C230.356 72.197 230.417 72.3425 230.418 72.5122C230.418 72.6246 230.389 72.7279 230.332 72.8221C230.278 72.9163 230.203 72.9921 230.109 73.0497C230.018 73.105 229.915 73.1329 229.8 73.1332ZM233.872 73.1769C233.431 73.1781 233.042 73.0679 232.705 72.8464C232.367 72.6226 232.102 72.3068 231.911 71.8991C231.719 71.4891 231.623 71.0043 231.621 70.4446C231.619 69.8896 231.713 69.4077 231.903 68.9989C232.092 68.5901 232.356 68.274 232.695 68.0506C233.033 67.8272 233.425 67.7148 233.87 67.7136C234.214 67.7126 234.486 67.7692 234.686 67.8833C234.888 67.9951 235.042 68.1232 235.148 68.2674C235.256 68.4093 235.34 68.526 235.4 68.6176L235.469 68.6174L235.462 66.0165L236.274 66.0142L236.293 73.06L235.509 73.0622L235.507 72.2503L235.41 72.2505C235.351 72.347 235.267 72.4688 235.157 72.6159C235.047 72.7607 234.89 72.8908 234.687 73.006C234.483 73.119 234.211 73.1759 233.872 73.1769ZM233.98 72.4472C234.306 72.4463 234.581 72.3607 234.805 72.1903C235.029 72.0177 235.199 71.7798 235.315 71.4767C235.432 71.1714 235.489 70.8191 235.488 70.4201C235.487 70.0256 235.429 69.6806 235.313 69.385C235.198 69.0872 235.027 68.856 234.802 68.6915C234.577 68.5247 234.299 68.4417 233.969 68.4427C233.625 68.4436 233.338 68.5327 233.109 68.71C232.883 68.8849 232.713 69.1228 232.599 69.4236C232.487 69.722 232.432 70.057 232.433 70.4286C232.434 70.8047 232.492 71.1463 232.608 71.4533C232.726 71.758 232.898 72.0007 233.126 72.1812C233.356 72.3595 233.64 72.4481 233.98 72.4472ZM240.109 73.1594C239.6 73.1609 239.16 73.0497 238.79 72.826C238.423 72.5999 238.139 72.2842 237.938 71.8788C237.74 71.4711 237.64 70.9966 237.638 70.4553C237.637 69.9141 237.734 69.4367 237.93 69.0233C238.128 68.6077 238.405 68.2835 238.76 68.0509C239.117 67.8159 239.534 67.6978 240.011 67.6964C240.286 67.6957 240.558 67.7408 240.827 67.8318C241.096 67.9228 241.34 68.0712 241.561 68.277C241.782 68.4805 241.958 68.7506 242.09 69.0874C242.221 69.4242 242.288 69.8392 242.289 70.3323L242.29 70.6763L238.217 70.6877L238.215 69.9858L241.463 69.9768C241.462 69.6786 241.401 69.4127 241.281 69.1791C241.164 68.9455 240.996 68.7613 240.778 68.6266C240.562 68.4919 240.307 68.425 240.013 68.4258C239.69 68.4267 239.41 68.5077 239.175 68.669C238.941 68.8279 238.762 69.0348 238.636 69.2897C238.511 69.5447 238.448 69.8178 238.449 70.109L238.45 70.5769C238.452 70.976 238.521 71.3141 238.66 71.5912C238.8 71.8661 238.995 72.0754 239.243 72.2192C239.491 72.3607 239.779 72.431 240.107 72.4301C240.32 72.4295 240.513 72.3991 240.685 72.339C240.859 72.2766 241.009 72.1845 241.135 72.0625C241.26 71.9383 241.358 71.7844 241.426 71.6007L242.211 71.8187C242.129 72.085 241.991 72.3193 241.797 72.5217C241.602 72.7218 241.362 72.8784 241.075 72.9916C240.789 73.1025 240.467 73.1584 240.109 73.1594ZM247.264 68.9285L246.535 69.1369C246.489 69.0155 246.421 68.8976 246.331 68.7831C246.243 68.6664 246.124 68.5704 245.972 68.4952C245.821 68.4199 245.627 68.3826 245.39 68.3833C245.067 68.3842 244.798 68.4594 244.583 68.6091C244.37 68.7565 244.264 68.9437 244.264 69.1708C244.265 69.3726 244.339 69.5318 244.486 69.6484C244.633 69.7649 244.862 69.8618 245.175 69.9389L245.96 70.1294C246.432 70.2427 246.785 70.4172 247.017 70.6528C247.249 70.8861 247.366 71.1874 247.367 71.5566C247.368 71.8594 247.282 72.1302 247.108 72.3693C246.937 72.6083 246.696 72.797 246.387 72.9355C246.078 73.074 245.718 73.1438 245.307 73.1449C244.768 73.1464 244.322 73.0307 243.968 72.7978C243.614 72.5648 243.39 72.2237 243.294 71.7744L244.065 71.5796C244.139 71.8638 244.278 72.0767 244.483 72.2183C244.689 72.36 244.959 72.4303 245.292 72.4294C245.67 72.4283 245.97 72.3472 246.192 72.186C246.417 72.0226 246.528 71.8273 246.528 71.6002C246.527 71.4168 246.463 71.2633 246.334 71.1398C246.205 71.014 246.008 70.9205 245.741 70.8593L244.86 70.6554C244.376 70.542 244.02 70.3653 243.792 70.1251C243.567 69.8826 243.453 69.579 243.452 69.2143C243.452 68.9162 243.535 68.6522 243.701 68.4224C243.87 68.1925 244.1 68.0119 244.391 67.8803C244.685 67.7488 245.017 67.6825 245.388 67.6814C245.911 67.68 246.322 67.7935 246.621 68.022C246.922 68.2505 247.136 68.5527 247.264 68.9285ZM248.593 73.0257L248.579 67.7413L249.391 67.7391L249.405 73.0234L248.593 73.0257ZM248.989 66.8595C248.831 66.8599 248.694 66.8064 248.579 66.6989C248.467 66.5914 248.41 66.462 248.41 66.3106C248.409 66.1592 248.465 66.0295 248.577 65.9214C248.691 65.8133 248.828 65.759 248.986 65.7585C249.144 65.7581 249.28 65.8116 249.392 65.9191C249.507 66.0266 249.565 66.156 249.566 66.3074C249.566 66.4588 249.509 66.5885 249.395 66.6966C249.283 66.8047 249.147 66.859 248.989 66.8595ZM253.031 75.105C252.639 75.1061 252.302 75.0566 252.019 74.9565C251.737 74.8586 251.502 74.7285 251.313 74.5662C251.127 74.4062 250.978 74.2346 250.868 74.0514L251.513 73.5955C251.587 73.6916 251.68 73.8014 251.793 73.925C251.906 74.0508 252.06 74.1593 252.255 74.2505C252.452 74.344 252.71 74.3903 253.029 74.3894C253.456 74.3882 253.808 74.284 254.085 74.0768C254.362 73.8696 254.499 73.5459 254.498 73.1055L254.495 72.0321L254.426 72.0323C254.367 72.1288 254.282 72.2483 254.173 72.3908C254.065 72.531 253.91 72.6565 253.706 72.7671C253.504 72.8755 253.232 72.9301 252.888 72.9311C252.461 72.9323 252.078 72.8324 251.738 72.6316C251.4 72.4307 251.132 72.1378 250.934 71.7531C250.738 71.3683 250.639 70.9007 250.637 70.3502C250.636 69.809 250.73 69.3374 250.919 68.9355C251.108 68.5313 251.372 68.2186 251.711 67.9975C252.05 67.7741 252.442 67.6617 252.887 67.6605C253.231 67.6595 253.504 67.7161 253.706 67.8302C253.91 67.942 254.067 68.07 254.175 68.2142C254.285 68.3561 254.371 68.4729 254.43 68.5644L254.513 68.5642L254.511 67.7248L255.295 67.7226L255.31 73.1583C255.312 73.6124 255.209 73.982 255.004 74.2669C254.8 74.5542 254.526 74.7648 254.18 74.8988C253.836 75.0351 253.453 75.1038 253.031 75.105ZM252.996 72.2014C253.321 72.2005 253.596 72.1252 253.821 71.9755C254.045 71.8258 254.215 71.6109 254.332 71.3307C254.448 71.0506 254.505 70.7156 254.504 70.3257C254.503 69.945 254.445 69.6091 254.329 69.3182C254.214 69.0272 254.044 68.7995 253.818 68.6349C253.593 68.4704 253.315 68.3886 252.985 68.3896C252.641 68.3905 252.355 68.4785 252.126 68.6534C251.899 68.8284 251.729 69.0628 251.615 69.3567C251.503 69.6506 251.448 69.9764 251.449 70.3342C251.45 70.7012 251.508 71.0256 251.624 71.3073C251.742 71.5868 251.914 71.8065 252.142 71.9664C252.372 72.1241 252.656 72.2024 252.996 72.2014ZM257.599 69.8216L257.608 73.0005L256.796 73.0028L256.781 67.7184L257.566 67.7162L257.568 68.5419L257.637 68.5417C257.76 68.273 257.947 68.0569 258.199 67.8934C258.451 67.7275 258.776 67.644 259.176 67.6429C259.533 67.6419 259.847 67.7145 260.115 67.8605C260.384 68.0042 260.593 68.2238 260.743 68.5193C260.893 68.8124 260.969 69.1838 260.97 69.6333L260.979 72.9911L260.168 72.9933L260.158 69.6906C260.157 69.2755 260.048 68.9524 259.832 68.7214C259.616 68.488 259.32 68.3719 258.944 68.3729C258.684 68.3737 258.453 68.4305 258.249 68.5434C258.048 68.6564 257.889 68.8208 257.772 69.0368C257.656 69.2527 257.598 69.5143 257.599 69.8216Z" fill="#838383"/>
<rect x="140.852" y="68.8313" width="6.40314" height="5.72472" rx="0.660544" transform="rotate(-0.159979 140.852 68.8313)" fill="#BEBEBE"/>
<path d="M145.757 69.9177L145.751 67.5485C145.748 66.5465 144.933 65.7365 143.931 65.7393C142.929 65.7421 142.119 66.5567 142.122 67.5586L142.129 69.9278" stroke="#BEBEBE" stroke-width="0.440363"/>
<defs>
<linearGradient id="paint0_linear_156_15200" x1="93.3225" y1="34.6784" x2="78.664" y2="18.2155" gradientUnits="userSpaceOnUse">
<stop stop-color="#3CBCA2"/>
<stop offset="1" stop-color="#00AEEF"/>
</linearGradient>
<linearGradient id="paint1_linear_156_15200" x1="95.6322" y1="33.4363" x2="79.5724" y2="15.3994" gradientUnits="userSpaceOnUse">
<stop stop-color="#3ABCA2"/>
<stop offset="1" stop-color="#00AEEF"/>
</linearGradient>
<linearGradient id="paint2_linear_156_15200" x1="86.298" y1="24.0847" x2="79.3235" y2="23.9192" gradientUnits="userSpaceOnUse">
<stop stop-color="#004F6E" stop-opacity="0"/>
<stop offset="1" stop-color="#004F6E"/>
</linearGradient>
</defs>
</svg>
