<svg width="202" height="110" viewBox="0 0 202 110" fill="none" xmlns="http://www.w3.org/2000/svg">
<mask id="path-1-inside-1_294_9913" fill="white">
<path d="M0 10C0 4.47715 4.47715 0 10 0H192C197.523 0 202 4.47715 202 10V100C202 105.523 197.523 110 192 110H10C4.47715 110 0 105.523 0 100V10Z"/>
</mask>
<path d="M0 10C0 4.47715 4.47715 0 10 0H192C197.523 0 202 4.47715 202 10V100C202 105.523 197.523 110 192 110H10C4.47715 110 0 105.523 0 100V10Z" fill="#F8FAFF"/>
<path d="M10 0V1H192V0V-1H10V0ZM202 10H201V100H202H203V10H202ZM192 110V109H10V110V111H192V110ZM0 100H1V10H0H-1V100H0ZM10 110V109C5.02943 109 1 104.971 1 100H0H-1C-1 106.075 3.92486 111 10 111V110ZM202 100H201C201 104.971 196.971 109 192 109V110V111C198.075 111 203 106.075 203 100H202ZM192 0V1C196.971 1 201 5.02944 201 10H202H203C203 3.92487 198.075 -1 192 -1V0ZM10 0V-1C3.92487 -1 -1 3.92486 -1 10H0H1C1 5.02943 5.02944 1 10 1V0Z" fill="#E0EBFF" mask="url(#path-1-inside-1_294_9913)"/>
<g clip-path="url(#clip0_294_9913)">
<path opacity="0.15" d="M201 1H1V109H201V1Z" fill="#94A3B8"/>
<path d="M163 15H39C33.4772 15 29 19.4772 29 25V85C29 90.5229 33.4772 95 39 95H163C168.523 95 173 90.5229 173 85V25C173 19.4772 168.523 15 163 15Z" fill="white" stroke="#DBEAFE" stroke-width="1.5"/>
<path d="M101 47C107.627 47 113 41.6274 113 35C113 28.3726 107.627 23 101 23C94.3726 23 89 28.3726 89 35C89 41.6274 94.3726 47 101 47Z" fill="#EFF6FF" stroke="#DBEAFE"/>
<path d="M105 31H97C95.8954 31 95 31.8954 95 33V37C95 38.1046 95.8954 39 97 39H105C106.105 39 107 38.1046 107 37V33C107 31.8954 106.105 31 105 31Z" fill="#93C5FD"/>
<path opacity="0.5" d="M136 51H66C64.3431 51 63 52.3431 63 54C63 55.6569 64.3431 57 66 57H136C137.657 57 139 55.6569 139 54C139 52.3431 137.657 51 136 51Z" fill="#1E293B"/>
<path d="M161 62H41C39.8954 62 39 62.8954 39 64C39 65.1046 39.8954 66 41 66H161C162.105 66 163 65.1046 163 64C163 62.8954 162.105 62 161 62Z" fill="#E0EBFF"/>
<path d="M151 68H51C49.8954 68 49 68.8954 49 70C49 71.1046 49.8954 72 51 72H151C152.105 72 153 71.1046 153 70C153 68.8954 152.105 68 151 68Z" fill="#E0EBFF"/>
<path d="M143 74H59C57.8954 74 57 74.8954 57 76C57 77.1046 57.8954 78 59 78H143C144.105 78 145 77.1046 145 76C145 74.8954 144.105 74 143 74Z" fill="#E0EBFF"/>
<path d="M129 83H73C70.7909 83 69 84.7909 69 87C69 89.2091 70.7909 91 73 91H129C131.209 91 133 89.2091 133 87C133 84.7909 131.209 83 129 83Z" fill="#009AD6"/>
<path opacity="0.85" d="M121.5 86H80.5C79.6716 86 79 86.6716 79 87.5C79 88.3284 79.6716 89 80.5 89H121.5C122.328 89 123 88.3284 123 87.5C123 86.6716 122.328 86 121.5 86Z" fill="white"/>
</g>
<defs>
<clipPath id="clip0_294_9913">
<rect width="200" height="108" fill="white" transform="translate(1 1)"/>
</clipPath>
</defs>
</svg>
